<svg width="24" height="16" viewBox="0 0 24 16" fill="none" xmlns="http://www.w3.org/2000/svg">
<path fill-rule="evenodd" clip-rule="evenodd" d="M-3.37228e-07 7.99997C-3.47164e-07 7.77265 0.0902997 7.55465 0.251035 7.39391C0.41177 7.23318 0.629774 7.14288 0.857088 7.14288L21.0724 7.14288L15.6779 1.75008C15.5169 1.58914 15.4265 1.37086 15.4265 1.14326C15.4265 0.915661 15.5169 0.697382 15.6779 0.536444C15.8388 0.375506 16.0571 0.285092 16.2847 0.285092C16.5123 0.285092 16.7306 0.375505 16.8915 0.536444L23.7482 7.39315C23.828 7.47276 23.8913 7.56735 23.9346 7.67147C23.9778 7.7756 24 7.88723 24 7.99997C24 8.1127 23.9778 8.22433 23.9346 8.32846C23.8913 8.43259 23.828 8.52717 23.7482 8.60679L16.8915 15.4635C16.7306 15.6244 16.5123 15.7148 16.2847 15.7148C16.0571 15.7148 15.8388 15.6244 15.6779 15.4635C15.5169 15.3026 15.4265 15.0843 15.4265 14.8567C15.4265 14.6291 15.5169 14.4108 15.6779 14.2499L21.0724 8.85706L0.857088 8.85706C0.629774 8.85706 0.41177 8.76676 0.251035 8.60602C0.0902997 8.44528 -3.27292e-07 8.22728 -3.37228e-07 7.99997V7.99997Z" fill="#D7B7FD"/>
</svg>
