<svg width="26" height="26" viewBox="0 0 26 26" fill="none" xmlns="http://www.w3.org/2000/svg">
<path d="M11.2645 6.0889L7.20511 1.40318C6.73714 0.863216 5.87919 0.865616 5.33562 1.41038L1.99742 4.75458C1.00388 5.74932 0.719495 7.22644 1.29426 8.41076C4.728 15.5203 10.4618 21.2621 17.5665 24.7058C18.7496 25.2806 20.2255 24.9962 21.2191 24.0014L24.5885 20.626C25.1344 20.0801 25.1356 19.2173 24.5909 18.7493L19.8871 14.7116C19.3952 14.2892 18.6308 14.3444 18.1377 14.8388L16.501 16.4779C16.4172 16.5657 16.3069 16.6236 16.187 16.6427C16.0671 16.6617 15.9443 16.6409 15.8374 16.5835C13.1621 15.0429 10.9429 12.8208 9.40578 10.1435C9.34821 10.0364 9.32737 9.91335 9.34644 9.79327C9.36552 9.67319 9.42345 9.56268 9.51137 9.4787L11.1433 7.8456C11.6376 7.34883 11.6916 6.58087 11.2645 6.0877V6.0889Z" stroke="#D7B7FD" stroke-width="2" stroke-linecap="round" stroke-linejoin="round"/>
</svg>
