<svg width="16" height="24" viewBox="0 0 16 24" fill="none" xmlns="http://www.w3.org/2000/svg">
<path fill-rule="evenodd" clip-rule="evenodd" d="M7.71488 0C7.94219 0 8.16019 0.0903001 8.32093 0.251035C8.48166 0.41177 8.57196 0.629774 8.57196 0.857088V21.0724L13.9648 15.6779C14.1257 15.5169 14.344 15.4265 14.5716 15.4265C14.7992 15.4265 15.0175 15.5169 15.1784 15.6779C15.3393 15.8388 15.4298 16.0571 15.4298 16.2847C15.4298 16.5123 15.3393 16.7306 15.1784 16.8915L8.32169 23.7482C8.24208 23.828 8.1475 23.8913 8.04337 23.9346C7.93924 23.9778 7.82761 24 7.71488 24C7.60214 24 7.49051 23.9778 7.38638 23.9346C7.28225 23.8913 7.18767 23.828 7.10806 23.7482L0.251352 16.8915C0.090414 16.7306 -5.36246e-09 16.5123 0 16.2847C5.36246e-09 16.0571 0.090414 15.8388 0.251352 15.6779C0.41229 15.5169 0.63057 15.4265 0.858171 15.4265C1.08577 15.4265 1.30405 15.5169 1.46499 15.6779L6.85779 21.0724V0.857088C6.85779 0.629774 6.94809 0.41177 7.10882 0.251035C7.26956 0.0903001 7.48756 0 7.71488 0V0Z" fill="#D7B7FD"/>
</svg>
