<svg width="25" height="24" viewBox="0 0 25 24" fill="none" xmlns="http://www.w3.org/2000/svg">
<path d="M23.0698 0H2.92778C1.86278 0 0.998779 0.864 0.998779 1.929V22.071C0.998779 23.136 1.86278 24 2.92778 24H23.0698C24.1348 24 24.9988 23.136 24.9988 22.071V1.929C24.9988 0.864 24.1348 0 23.0698 0V0ZM23.0698 22.08C9.63578 22.077 2.91878 22.074 2.91878 22.071C2.92178 8.637 2.92478 1.92 2.92778 1.92C16.3618 1.923 23.0788 1.926 23.0788 1.929C23.0758 15.363 23.0728 22.08 23.0698 22.08ZM4.55678 8.997H8.11778V20.451H4.55678V8.997ZM6.33878 7.431C7.47578 7.431 8.40278 6.507 8.40278 5.367C8.40278 5.09595 8.34939 4.82756 8.24567 4.57714C8.14194 4.32673 7.98991 4.09919 7.79825 3.90753C7.60659 3.71587 7.37905 3.56384 7.12864 3.46011C6.87822 3.35639 6.60983 3.303 6.33878 3.303C6.06773 3.303 5.79934 3.35639 5.54892 3.46011C5.2985 3.56384 5.07097 3.71587 4.87931 3.90753C4.68765 4.09919 4.53562 4.32673 4.43189 4.57714C4.32817 4.82756 4.27478 5.09595 4.27478 5.367C4.27178 6.507 5.19578 7.431 6.33878 7.431ZM13.9078 14.784C13.9078 13.29 14.1928 11.844 16.0438 11.844C17.8678 11.844 17.8948 13.551 17.8948 14.88V20.451H21.4528V14.169C21.4528 11.085 20.7868 8.712 17.1838 8.712C15.4528 8.712 14.2918 9.663 13.8148 10.563H13.7668V8.997H10.3498V20.451H13.9078V14.784Z" fill="#D7B7FD"/>
</svg>
